<svg viewBox="0 0 166.19 38.07" xmlns="http://www.w3.org/2000/svg"><title>Asset 3</title><g data-name="Layer 2" id="Layer_2"><g data-name="Capa 1" id="Capa_1"><path d="M19.91,37.79a.19.19,0,0,1-.16-.07.21.21,0,0,1-.05-.17l2.7-15.41L20.52.66A.24.24,0,0,1,20.6.45a.25.25,0,0,1,.21-.1h5l0,.24,0-.24A.2.2,0,0,1,26,.54l.64,8.58a39.37,39.37,0,0,1-.14,6.45A44.64,44.64,0,0,1,29,8.69L32.68.53A.3.3,0,0,1,33,.35h4.92a.18.18,0,0,1,.18.1.2.2,0,0,1,0,.21L28.19,22.09,25.48,37.55a.28.28,0,0,1-.1.17.26.26,0,0,1-.19.07Z"></path><path d="M47.75,37.79a.2.2,0,0,1-.21-.19L46.37,11.22,46.2,13,46,16.24l-3.31,21.3a.32.32,0,0,1-.1.18.26.26,0,0,1-.19.07H37.7a.18.18,0,0,1-.16-.07.21.21,0,0,1,0-.17L44,.59a.33.33,0,0,1,.1-.17.3.3,0,0,1,.19-.07h5.23l0,.24,0-.24a.2.2,0,0,1,.21.19L51.05,24.2c0,.63.05,1.2.07,1.73.07-1.07.15-2.14.28-3.23l.23-3.47L54.68.6a.32.32,0,0,1,.1-.18A.3.3,0,0,1,55,.35h4.72a.21.21,0,0,1,.17.07.2.2,0,0,1,0,.17l-6.46,37a.33.33,0,0,1-.1.17.28.28,0,0,1-.19.07Z"></path><path d="M57.07,34.33a10.43,10.43,0,0,1,0-5.35L60.32,10.5c.58-3.34,1.17-5.83,3.27-7.85A9.79,9.79,0,0,1,70.31,0c2.07,0,4.06.48,5.34,2.17,1.73,2.24,1.25,4.9.46,9.44L73.05,29.14a13,13,0,0,1-2,5.48c-1.39,1.91-3.8,3.46-7.84,3.45H63.1c-1.09,0-4.86-.07-6-3.74M66.66,6.55a13.15,13.15,0,0,0-.89,3.68L62.35,29.75a5.65,5.65,0,0,0-.05,2.48c.23.64.72,1.08,2,1.09A2.65,2.65,0,0,0,66.81,32a10.24,10.24,0,0,0,1-3.34L71,10.28a13.11,13.11,0,0,0,.35-3.88c-.18-.92-.64-1.42-2-1.44a3,3,0,0,0-2.73,1.59"></path><path d="M77.9,37.79a.18.18,0,0,1-.16-.07.21.21,0,0,1,0-.17L83.36,5.19H78a.21.21,0,0,1-.16-.08.17.17,0,0,1,0-.17L78.56.59a.33.33,0,0,1,.1-.17.26.26,0,0,1,.19-.07H95.18a.2.2,0,0,1,.16.07.21.21,0,0,1,0,.17l-.76,4.35a.23.23,0,0,1-.1.17.27.27,0,0,1-.19.08H88.82L83.16,37.55a.33.33,0,0,1-.1.17.28.28,0,0,1-.19.07Z"></path><path d="M105.11,37.79H95.74a.19.19,0,0,1-.16-.07.17.17,0,0,1,0-.17L102,.59a.33.33,0,0,1,.1-.17.3.3,0,0,1,.19-.07h8.95c2.66,0,4.05.77,4.65,2a7,7,0,0,1,.17,4.24l-4.31,24.6c-.43,2.45-1,4.1-2.09,5.18s-2.54,1.45-4.55,1.45Zm-3.37-5h3a1.36,1.36,0,0,0,1.18-.45,3.17,3.17,0,0,0,.45-1.35l4.08-23.29A3.8,3.8,0,0,0,110.51,6c-.15-.37-.47-.62-1.4-.63h-2.58Zm4.55-27.41,0-.24Z"></path><path d="M155,37.79h-9.37a.18.18,0,0,1-.16-.07.21.21,0,0,1,0-.17l6.47-37a.33.33,0,0,1,.1-.17.28.28,0,0,1,.19-.07h8.95c2.66,0,4,.77,4.65,2A7,7,0,0,1,166,6.56l-4.3,24.6c-.43,2.45-1,4.1-2.09,5.18S157,37.79,155,37.79Zm-3.37-5h3a1.37,1.37,0,0,0,1.19-.45,3.17,3.17,0,0,0,.45-1.35l4.08-23.29A3.63,3.63,0,0,0,160.4,6c-.14-.37-.46-.62-1.39-.63h-2.58Zm4.54-27.41,0-.24Z"></path><path d="M113.1,37.92a.2.2,0,0,1-.2-.24L119.36.73a.29.29,0,0,1,.11-.18.26.26,0,0,1,.18-.07h12.2a.19.19,0,0,1,.16.07.22.22,0,0,1,0,.18l-.81,4.65a.32.32,0,0,1-.1.18.3.3,0,0,1-.19.07h-7l-1.8,10.29h6.24a.24.24,0,0,1,.17.07.27.27,0,0,1,0,.18l-.8,4.55a.3.3,0,0,1-.1.17.29.29,0,0,1-.19.08h-6.24l-2.07,11.8h7a.24.24,0,0,1,.16.07.23.23,0,0,1,0,.18l-.82,4.66a.3.3,0,0,1-.29.24Z"></path><path d="M18.07.56a.21.21,0,0,0-.21-.21H11.94a.31.31,0,0,0-.28.21L0,37.51a.23.23,0,0,0,0,.2.2.2,0,0,0,.17.08H4.92a.29.29,0,0,0,.28-.21l2-6.59h5.11L12,37.58a.21.21,0,0,0,.21.21H17a.27.27,0,0,0,.2-.09.25.25,0,0,0,.09-.19ZM8.77,25.73l4.5-14.84L12.6,25.73Z"></path><path d="M145.08.56a.21.21,0,0,0-.21-.21H139a.3.3,0,0,0-.28.21L127,37.51a.23.23,0,0,0,0,.2.21.21,0,0,0,.17.08h4.72a.31.31,0,0,0,.28-.21l2-6.59h5.11l-.24,6.59a.21.21,0,0,0,.21.21H144a.31.31,0,0,0,.29-.28Zm-9.3,25.17,4.5-14.84-.66,14.84Z"></path></g></g></svg>